<svg xmlns="http://www.w3.org/2000/svg" version="1.1" xmlns:xlink="http://www.w3.org/1999/xlink" xmlns:svgjs="http://svgjs.dev/svgjs" width="1000" height="1000" viewBox="0 0 1000 1000"><g transform="matrix(1,0,0,1,0,0)"><svg viewBox="0 0 280 280" data-background-color="#f8f9fa" preserveAspectRatio="xMidYMid meet" height="1000" width="1000" xmlns="http://www.w3.org/2000/svg" xmlns:xlink="http://www.w3.org/1999/xlink"><g id="tight-bounds" transform="matrix(1,0,0,1,0,0)"><svg viewBox="0 0 280 280" height="280" width="280"><g><svg viewBox="0 0 280 280" height="280" width="280"><g><svg viewBox="0 0 280 280" height="280" width="280"><g id="textblocktransform"><svg viewBox="0 0 280 280" height="280" width="280" id="textblock"><g><svg viewBox="0 0 280 280" height="280" width="280"><g transform="matrix(1,0,0,1,74.00336708925556,74.00336708925556)"><svg viewBox="0 0 131.99326582148888 131.99326582148888" height="131.99326582148888" width="131.99326582148888"><g><svg xmlns="http://www.w3.org/2000/svg" xmlns:xlink="http://www.w3.org/1999/xlink" version="1.1" x="0" y="0" viewBox="3 3.007 58 58" style="enable-background:new 0 0 64 64;" xml:space="preserve" height="131.99326582148888" width="131.99326582148888" class="icon-xg-0" data-fill-palette-color="accent" id="xg-0"><g fill="#b5838d" data-fill-palette-color="accent"><path d="M52 47.007H38c-1.396 0-2.562-0.962-2.895-2.256 0.3-0.041 0.601-0.08 0.895-0.137V3.39c-0.983-0.19-1.987-0.287-3-0.335v35.953h-2V3.058c-1.019 0.048-2.023 0.153-3 0.342v2.607h-2V3.892c-1.038 0.31-2.035 0.711-3 1.171v37.899c0.967 0.46 1.97 0.844 3 1.153V8.007h2v36.608c0.983 0.192 1.987 0.292 3 0.342v-2.95-1h2v1 2c0 2.757 2.243 5 5 5h14c1.103 0 2 0.897 2 2s-0.897 2-2 2H22c-2.206 0-4 1.794-4 4s1.794 4 4 4h30v-2H22c-1.103 0-2-0.897-2-2s0.897-2 2-2h30c2.206 0 4-1.794 4-4S54.206 47.007 52 47.007z" fill="#b5838d" data-fill-palette-color="accent"></path><rect x="54" y="59.007" width="2" height="2" fill="#b5838d" data-fill-palette-color="accent"></rect><path d="M21 25.641L5.083 35.305C3.799 36.086 3 37.504 3 39.007c0 0.552 0.448 1 1 1s1-0.448 1-1v-1.59l16-8.857V25.641z" fill="#b5838d" data-fill-palette-color="accent"></path><path d="M21 13.038l-4.829-2.788c-0.661 0.76-1.269 1.565-1.817 2.414L21 16.502V13.038z" fill="#b5838d" data-fill-palette-color="accent"></path><path d="M21 30.847l-7.042 3.899c0.646 1.083 1.38 2.096 2.194 3.031L21 34.977V30.847z" fill="#b5838d" data-fill-palette-color="accent"></path><path d="M21 7.264l-0.916-0.529c-0.882 0.611-1.708 1.294-2.486 2.029L21 10.728V7.264z" fill="#b5838d" data-fill-palette-color="accent"></path><path d="M20 18.234l-6.649-3.839c-0.461 0.891-0.855 1.82-1.186 2.779L17 19.966 20 18.234z" fill="#b5838d" data-fill-palette-color="accent"></path><path d="M43.913 6.737L43 7.264v2.68l2.825-1.715C45.213 7.693 44.575 7.195 43.913 6.737z" fill="#b5838d" data-fill-palette-color="accent"></path><path d="M21 40.75v-3.464l-3.414 1.971c0.783 0.738 1.617 1.414 2.499 2.021L21 40.75z" fill="#b5838d" data-fill-palette-color="accent"></path><path d="M15 21.121l-3.41-1.969c-0.246 1.031-0.418 2.089-0.504 3.172L12 22.853 15 21.121z" fill="#b5838d" data-fill-palette-color="accent"></path><path d="M21 23.302v-3.336l-9.929 5.733c0.089 1.118 0.272 2.221 0.536 3.306L21 23.302z" fill="#b5838d" data-fill-palette-color="accent"></path><path d="M52.42 19.146l-1.531 0.884-1-1.732 1.965-1.134c-0.324-0.942-0.72-1.857-1.176-2.745L43 18.668v3.607l5.312-3.067 1 1.732L43 24.585v3.464l9.924-5.73C52.838 21.247 52.667 20.187 52.42 19.146z" fill="#b5838d" data-fill-palette-color="accent"></path><path d="M44 29.781l6.649 3.839c0.461-0.891 0.855-1.82 1.186-2.779L47 28.049 44 29.781z" fill="#b5838d" data-fill-palette-color="accent"></path><path d="M52.915 25.691L52 25.162l-3 1.732 3.41 1.969C52.656 27.831 52.828 26.774 52.915 25.691z" fill="#b5838d" data-fill-palette-color="accent"></path><path d="M58.875 3.007c-0.39 0-0.771 0.106-1.103 0.309L43 12.283v4.099l16.904-9.357C60.58 6.651 61 5.938 61 5.166 61 3.96 60.047 3.007 58.875 3.007z" fill="#b5838d" data-fill-palette-color="accent"></path><path d="M49.646 35.35L43 31.513v3.464l4.829 2.788C48.49 37.004 49.098 36.2 49.646 35.35z" fill="#b5838d" data-fill-palette-color="accent"></path><path d="M41 5.049c-0.971-0.461-1.969-0.86-3-1.167v40.241c1.038-0.31 2.035-0.711 3-1.171V5.049z" fill="#b5838d" data-fill-palette-color="accent"></path><path d="M46.401 39.25L43 37.286v3.464l0.916 0.529C44.798 40.668 45.624 39.985 46.401 39.25z" fill="#b5838d" data-fill-palette-color="accent"></path></g></svg></g></svg></g><g><path d="M10.122 90.615l12.949 1.319 0.087-0.229-10.592-7.566c-2.29-1.619-3.646-3.291-4.068-5.017-0.422-1.726-0.111-3.973 0.934-6.741v0l26.665 10.064-1.352 3.581-22.627-8.54c0.03 0.766 0.234 1.416 0.613 1.95 0.379 0.535 1.018 1.146 1.919 1.834v0l14.544 10.93-1.265 3.352-18.153-1.368c-1.156-0.088-2.044-0.061-2.664 0.082-0.62 0.143-1.194 0.492-1.723 1.047v0l22.627 8.54-1.351 3.581-26.665-10.064c1.045-2.768 2.3-4.652 3.765-5.651 1.465-0.999 3.584-1.367 6.357-1.104z" fill="#e5989b" data-fill-palette-color="primary"></path><path d="M40.405 44.215l14.59 13.003-2.384 2.674-12.036-10.727-2.222 2.492-1.469-3.491zM34.873 44.302v0c-0.579-0.044-1.072-0.246-1.476-0.607-0.405-0.361-0.658-0.823-0.758-1.384-0.1-0.561 0.094-1.116 0.582-1.663 0.488-0.547 1.016-0.803 1.586-0.769 0.569 0.035 1.056 0.232 1.461 0.594 0.405 0.361 0.658 0.823 0.757 1.384 0.1 0.561-0.094 1.116-0.582 1.663-0.488 0.547-1.011 0.808-1.57 0.782z" fill="#e5989b" data-fill-palette-color="primary"></path><path d="M83.589 35.735v0c-2.311 1.318-4.735 1.669-7.273 1.055-2.538-0.615-4.5-2.136-5.885-4.565v0c-1.399-2.452-1.741-4.983-1.026-7.594 0.714-2.61 2.297-4.615 4.749-6.014v0l8.311-4.74 9.401 16.481c0.605 1.061 1.014 2.093 1.227 3.097 0.213 1.003 0.24 1.941 0.081 2.813-0.159 0.872-0.345 1.587-0.557 2.146-0.213 0.559-0.501 1.176-0.865 1.853v0c-1.032 1.588-2.597 2.981-4.695 4.177v0l-3.962 2.26-1.694-2.971 3.643-2.078c2.075-1.183 3.401-2.283 3.977-3.3v0c1.092-1.81 1.047-3.753-0.137-5.828v0l-7.907-13.864-5.128 2.925c-1.674 0.955-2.71 2.233-3.109 3.836-0.399 1.602-0.107 3.264 0.874 4.985v0c0.941 1.65 2.197 2.661 3.768 3.031 1.57 0.37 3.075 0.145 4.513-0.676v0c1.556-0.888 2.682-2.092 3.376-3.613v0l1.816 3.183c-0.87 1.434-2.036 2.567-3.498 3.401z" fill="#e5989b" data-fill-palette-color="primary"></path><path d="M130.082 1.431l2.965 19.317-6.962 1.069c-2.978 0.457-5.179 0.342-6.603-0.346v0c-1.273-0.601-2.147-1.421-2.622-2.46-0.475-1.039-0.849-2.444-1.121-4.215v0l-1.674-10.906 3.541-0.544 1.668 10.866c0.074 0.483 0.15 0.89 0.229 1.221 0.078 0.331 0.238 0.746 0.479 1.245 0.241 0.498 0.535 0.893 0.882 1.183 0.347 0.29 0.821 0.519 1.424 0.687 0.603 0.168 1.306 0.191 2.111 0.068v0l4.588-0.705-2.447-15.937z" fill="#e5989b" data-fill-palette-color="primary"></path><path d="M162.208 22.855l-3.519-0.672 2.086-10.918c0.586-3.066 1.564-5.076 2.935-6.03v0c0.672-0.48 1.436-0.79 2.292-0.93 0.856-0.14 1.589-0.18 2.199-0.119 0.61 0.061 1.435 0.191 2.475 0.39v0l3.519 0.673-0.642 3.359-4.239-0.81c-0.533-0.102-0.949-0.168-1.247-0.197-0.298-0.029-0.663-0.002-1.094 0.081-0.43 0.084-0.825 0.271-1.185 0.561v0c-0.629 0.543-1.127 1.774-1.493 3.694v0z" fill="#e5989b" data-fill-palette-color="primary"></path><path d="M216.645 23.857l-9.483 17.088-6.159-3.418c-2.634-1.462-4.304-2.901-5.009-4.316v0c-0.639-1.255-0.828-2.438-0.567-3.551 0.26-1.113 0.825-2.452 1.695-4.019v0l5.354-9.648 3.133 1.739-5.335 9.612c-0.237 0.427-0.426 0.796-0.567 1.106-0.141 0.31-0.269 0.736-0.383 1.277-0.114 0.542-0.123 1.034-0.027 1.476 0.096 0.442 0.331 0.913 0.705 1.415 0.373 0.502 0.916 0.951 1.628 1.346v0l4.058 2.252 7.824-14.098z" fill="#e5989b" data-fill-palette-color="primary"></path><path d="M226.66 58.086l15.311-12.146 11.16 14.067c1.198 1.51 1.864 2.939 1.998 4.288v0c0.151 1.37-0.116 2.561-0.803 3.573-0.687 1.012-1.668 2.025-2.944 3.037v0l-8.932 7.085-2.226-2.807 8.931-7.085c1.659-1.316 2.357-2.684 2.096-4.105v0c-0.128-0.73-0.808-1.871-2.04-3.423v0l-1.037-1.308-12.632 10.02-2.226-2.807 12.631-10.02-4.428-5.582-12.632 10.02z" fill="#e5989b" data-fill-palette-color="primary"></path><path d="M273.153 100.726l-18.592 6.026-1.104-3.409 15.337-4.971-1.029-3.176 3.756 0.495zM275.871 95.907v0c0.33-0.478 0.753-0.801 1.27-0.968 0.516-0.167 1.042-0.152 1.577 0.046 0.535 0.198 0.915 0.645 1.141 1.342 0.226 0.697 0.18 1.283-0.137 1.756-0.317 0.474-0.734 0.794-1.25 0.962-0.516 0.167-1.042 0.152-1.577-0.045-0.535-0.198-0.915-0.645-1.142-1.342-0.226-0.697-0.187-1.281 0.118-1.751z" fill="#e5989b" data-fill-palette-color="primary"></path><path d="M31.911 181.161l-10.592 7.566 0.086 0.229 12.95-1.319c2.789-0.298 4.912 0.061 6.369 1.077 1.457 1.017 2.708 2.909 3.753 5.678v0l-26.665 10.064-1.351-3.581 22.627-8.54c-0.529-0.555-1.111-0.908-1.749-1.059-0.637-0.151-1.521-0.187-2.652-0.109v0l-18.139 1.407-1.266-3.352 14.531-10.968c0.926-0.698 1.575-1.305 1.945-1.822 0.371-0.517 0.571-1.158 0.601-1.924v0l-22.627 8.54-1.352-3.581 26.665-10.064c1.045 2.768 1.347 5.011 0.908 6.729-0.44 1.718-1.787 3.394-4.042 5.029z" fill="#e5989b" data-fill-palette-color="primary"></path><path d="M54.995 222.782l-14.59 13.003-2.384-2.674 12.037-10.728-2.221-2.492 3.637-1.06zM55.543 217.277v0c0.11-0.57 0.367-1.036 0.772-1.398 0.405-0.361 0.892-0.559 1.462-0.593 0.569-0.035 1.098 0.222 1.585 0.769 0.488 0.547 0.682 1.101 0.582 1.662-0.1 0.561-0.352 1.023-0.757 1.384-0.405 0.361-0.892 0.559-1.462 0.594-0.569 0.035-1.098-0.222-1.585-0.769-0.488-0.547-0.687-1.097-0.597-1.649z" fill="#e5989b" data-fill-palette-color="primary"></path><path d="M73.907 261.241v0c-2.311-1.318-3.847-3.226-4.611-5.723-0.763-2.498-0.452-4.961 0.934-7.389v0c1.399-2.452 3.403-4.035 6.013-4.749 2.61-0.714 5.142-0.372 7.594 1.026v0l8.311 4.741-9.4 16.481c-0.605 1.061-1.285 1.939-2.041 2.633-0.755 0.694-1.549 1.195-2.38 1.501-0.831 0.307-1.542 0.511-2.13 0.613-0.589 0.101-1.267 0.168-2.035 0.199v0c-1.892-0.079-3.888-0.717-5.986-1.914v0l-3.962-2.26 1.695-2.97 3.643 2.077c2.075 1.183 3.696 1.765 4.864 1.744v0c2.114 0.018 3.763-1.01 4.947-3.085v0l7.908-13.864-5.129-2.925c-1.674-0.955-3.302-1.196-4.884-0.723-1.582 0.473-2.864 1.57-3.845 3.291v0c-0.941 1.65-1.172 3.246-0.691 4.785 0.481 1.54 1.441 2.72 2.879 3.541v0c1.556 0.888 3.166 1.243 4.829 1.066v0l-1.816 3.183c-1.677-0.019-3.246-0.445-4.707-1.279z" fill="#e5989b" data-fill-palette-color="primary"></path><path d="M133.047 259.252l-2.965 19.317-6.962-1.069c-2.978-0.457-5.043-1.227-6.195-2.31v0c-1.034-0.955-1.622-2-1.764-3.134-0.142-1.134-0.077-2.586 0.195-4.357v0l1.674-10.906 3.542 0.544-1.669 10.866c-0.074 0.483-0.124 0.894-0.148 1.233-0.025 0.339 0.003 0.783 0.084 1.331 0.081 0.548 0.243 1.012 0.487 1.393 0.244 0.381 0.628 0.742 1.152 1.083 0.524 0.341 1.189 0.574 1.993 0.698v0l4.588 0.704 2.447-15.937z" fill="#e5989b" data-fill-palette-color="primary"></path><path d="M165.877 276.341l-3.519 0.673-2.087-10.918c-0.586-3.066-0.418-5.295 0.504-6.688v0c0.448-0.694 1.044-1.263 1.788-1.709 0.744-0.446 1.411-0.753 2-0.921 0.59-0.168 1.404-0.351 2.444-0.55v0l3.519-0.673 0.642 3.359-4.239 0.811c-0.533 0.102-0.944 0.194-1.232 0.277-0.288 0.083-0.617 0.242-0.986 0.478-0.369 0.236-0.668 0.556-0.895 0.959v0c-0.384 0.737-0.393 2.065-0.026 3.984v0z" fill="#e5989b" data-fill-palette-color="primary"></path><path d="M207.162 239.055l9.483 17.088-6.159 3.418c-2.634 1.462-4.739 2.118-6.313 1.967v0c-1.403-0.122-2.507-0.588-3.313-1.398-0.806-0.81-1.644-1.998-2.514-3.564v0l-5.354-9.648 3.133-1.739 5.335 9.613c0.237 0.427 0.45 0.783 0.638 1.066 0.188 0.283 0.482 0.617 0.881 1.001 0.399 0.384 0.812 0.652 1.238 0.803 0.426 0.152 0.95 0.202 1.574 0.151 0.624-0.051 1.291-0.274 2.003-0.669v0l4.058-2.253-7.823-14.098z" fill="#e5989b" data-fill-palette-color="primary"></path><path d="M241.971 234.06l-15.311-12.146 11.16-14.067c1.198-1.51 2.438-2.484 3.72-2.921v0c1.3-0.459 2.52-0.469 3.663-0.031 1.142 0.438 2.351 1.164 3.627 2.175v0l8.931 7.086-2.227 2.807-8.931-7.086c-1.659-1.316-3.15-1.685-4.475-1.107v0c-0.681 0.291-1.638 1.213-2.869 2.765v0l-1.037 1.308 12.631 10.021-2.227 2.807-12.631-10.021-4.428 5.582 12.631 10.021z" fill="#e5989b" data-fill-palette-color="primary"></path><path d="M254.561 173.248l18.592 6.026-1.105 3.408-15.338-4.971-1.029 3.176-2.752-2.604zM249.533 175.556v0c-0.548 0.193-1.08 0.206-1.596 0.039-0.516-0.167-0.933-0.488-1.251-0.962-0.317-0.474-0.363-1.059-0.137-1.756 0.226-0.697 0.606-1.145 1.142-1.342 0.535-0.198 1.06-0.213 1.577-0.045 0.516 0.167 0.933 0.488 1.25 0.961 0.317 0.474 0.363 1.059 0.137 1.757-0.226 0.697-0.6 1.147-1.122 1.348z" fill="#e5989b" data-fill-palette-color="primary"></path><path d="M1.433 140c0-6.013 4.874-10.887 10.887-10.887 6.013 0 10.887 4.874 10.888 10.887 0 6.013-4.874 10.887-10.888 10.887-6.013 0-10.887-4.874-10.887-10.887z" fill="#e5989b" data-fill-palette-color="primary"></path><path d="M257.947 140c0-6.013 4.874-10.887 10.887-10.887 6.013 0 10.887 4.874 10.888 10.887 0 6.013-4.874 10.887-10.888 10.887-6.013 0-10.887-4.874-10.887-10.887z" fill="#e5989b" data-fill-palette-color="primary"></path></g></svg></g></svg></g></svg></g></svg></g><defs></defs></svg><rect width="280" height="280" fill="none" stroke="none" visibility="hidden"></rect></g></svg></g></svg>