<svg xmlns="http://www.w3.org/2000/svg" version="1.1" xmlns:xlink="http://www.w3.org/1999/xlink" xmlns:svgjs="http://svgjs.dev/svgjs" width="1000" height="184" viewBox="0 0 1000 184"><g transform="matrix(1,0,0,1,-0.6060606060606233,-0.5658267303932263)"><svg viewBox="0 0 396 73" data-background-color="#f8f9fa" preserveAspectRatio="xMidYMid meet" height="184" width="1000" xmlns="http://www.w3.org/2000/svg" xmlns:xlink="http://www.w3.org/1999/xlink"><g id="tight-bounds" transform="matrix(1,0,0,1,0.2400000000000091,0.22448560499296377)"><svg viewBox="0 0 395.52 72.55102879001409" height="72.55102879001409" width="395.52"><g><svg viewBox="0 0 409.2808 75.0752" height="72.55102879001409" width="395.52"><g><svg viewBox="0 0 409.2808 75.0752" height="75.0752" width="409.2808"><g id="textblocktransform"><svg viewBox="0 0 409.2808 75.0752" height="75.0752" width="409.2808" id="textblock"><g><svg viewBox="0 0 409.2808 75.0752" height="75.0752" width="409.2808"><g><svg><g></g><g></g></svg></g><g><svg><g><svg></svg></g><g></g></svg></g><g id="text-0"><svg viewBox="0 0 409.2808 75.0752" height="75.0752" width="409.2808"><g transform="matrix(1,0,0,1,0,0)"><svg width="316.4808" viewBox="3.5 -35 195.58 46.4" height="75.0752" data-palette-color="#e5989b"><path d="M15.65-26.3L19.75-10.85 20.05-10.85 24.15-26.3Q25.45-31.3 28.15-33.15 30.85-35 36.3-35L36.3-35 36.3 0 31.6 0 31.6-29.7Q30.3-29.15 29.63-28.15 28.95-27.15 28.35-25.15L28.35-25.15 22.1-3.7 17.7-3.7 11.4-25.15Q10.8-27.2 10.15-28.18 9.5-29.15 8.2-29.7L8.2-29.7 8.2 0 3.5 0 3.5-35Q8.95-35 11.63-33.13 14.3-31.25 15.65-26.3L15.65-26.3ZM49.3-24L49.3 0 44.9 0 44.9-19.8 40.8-19.8 42.8-24 49.3-24ZM44.7-29L44.7-29Q44.05-29.85 44.05-30.85 44.05-31.85 44.7-32.68 45.35-33.5 46.7-33.5 48.05-33.5 48.7-32.68 49.35-31.85 49.35-30.85 49.35-29.85 48.7-29.03 48.05-28.2 46.7-28.2 45.35-28.2 44.7-29ZM67.15 0L67.15 0Q62.25 0 58.75-3.3 55.25-6.6 55.25-11.75L55.25-11.75Q55.25-16.95 58.77-20.48 62.3-24 67.5-24L67.5-24 79.25-24 79.25-0.7Q79.25 1.55 78.67 3.35 78.1 5.15 77.05 6.4 76 7.65 75.15 8.35 74.3 9.05 73.1 9.8L73.1 9.8Q70 11.4 65.55 11.4L65.55 11.4 59.95 11.4 59.95 7.2 65.1 7.2Q69.5 7.2 71.35 6.1L71.35 6.1Q74.75 4.2 74.75-0.2L74.75-0.2 74.75-19.8 67.5-19.8Q63.95-19.8 61.85-17.6 59.75-15.4 59.75-11.75L59.75-11.75Q59.75-8.25 61.92-6.23 64.1-4.2 67.15-4.2L67.15-4.2Q70.45-4.2 72.95-6L72.95-6 72.95-1.5Q70.25 0 67.15 0ZM105.39-24L105.39 0 96.74 0Q91.19 0 88.79-1.65L88.79-1.65Q86.64-3.1 86.07-5.13 85.49-7.15 85.49-10.45L85.49-10.45 85.49-24 89.89-24 89.89-10.5Q89.89-9.6 89.94-8.97 89.99-8.35 90.29-7.38 90.59-6.4 91.14-5.78 91.69-5.15 92.74-4.67 93.79-4.2 95.29-4.2L95.29-4.2 100.99-4.2 100.99-24 105.39-24ZM115.29 0L110.89 0 110.89-13.65Q110.89-19.4 113.04-21.6L113.04-21.6Q114.09-22.7 115.59-23.25 117.09-23.8 118.22-23.9 119.34-24 121.29-24L121.29-24 125.69-24 125.69-19.8 120.39-19.8Q119.39-19.8 118.84-19.75 118.29-19.7 117.54-19.4 116.79-19.1 116.24-18.45L116.24-18.45Q115.29-17.25 115.29-13.65L115.29-13.65 115.29 0ZM148.84-24L148.84 0 140.19 0Q134.64 0 132.24-1.65L132.24-1.65Q130.09-3.1 129.51-5.13 128.94-7.15 128.94-10.45L128.94-10.45 128.94-24 133.34-24 133.34-10.5Q133.34-9.6 133.39-8.97 133.44-8.35 133.74-7.38 134.04-6.4 134.59-5.78 135.14-5.15 136.19-4.67 137.24-4.2 138.74-4.2L138.74-4.2 144.44-4.2 144.44-24 148.84-24ZM155.34 0L155.34-24 177.39-24Q180.94-24 183.04-22.65L183.04-22.65Q185.19-21.3 185.86-19.15 186.54-17 186.54-14L186.54-14 186.54 0 182.14 0 182.14-14Q182.14-17.9 179.79-19.15L179.79-19.15Q178.59-19.8 174.94-19.8L174.94-19.8 172.89-19.8 172.89 0 168.49 0 168.49-19.8 159.74-19.8 159.74 0 155.34 0ZM199.03-24L199.03 0 194.63 0 194.63-19.8 190.53-19.8 192.53-24 199.03-24ZM194.43-29L194.43-29Q193.78-29.85 193.78-30.85 193.78-31.85 194.43-32.68 195.08-33.5 196.43-33.5 197.78-33.5 198.43-32.68 199.08-31.85 199.08-30.85 199.08-29.85 198.43-29.03 197.78-28.2 196.43-28.2 195.08-28.2 194.43-29Z" opacity="1" transform="matrix(1,0,0,1,0,0)" fill="#e5989b" class="wordmark-text-0" data-fill-palette-color="primary"></path></svg></g><g><svg xmlns="http://www.w3.org/2000/svg" xmlns:xlink="http://www.w3.org/1999/xlink" version="1.1" x="334.2056" y="0" viewBox="3 3.007 58 58" style="enable-background:new 0 0 64 64;" xml:space="preserve" height="75.0752" width="75.0752" class="icon-cg-0" data-fill-palette-color="accent" id="cg-0"><g fill="#b5838d" data-fill-palette-color="accent"><path d="M52 47.007H38c-1.396 0-2.562-0.962-2.895-2.256 0.3-0.041 0.601-0.08 0.895-0.137V3.39c-0.983-0.19-1.987-0.287-3-0.335v35.953h-2V3.058c-1.019 0.048-2.023 0.153-3 0.342v2.607h-2V3.892c-1.038 0.31-2.035 0.711-3 1.171v37.899c0.967 0.46 1.97 0.844 3 1.153V8.007h2v36.608c0.983 0.192 1.987 0.292 3 0.342v-2.95-1h2v1 2c0 2.757 2.243 5 5 5h14c1.103 0 2 0.897 2 2s-0.897 2-2 2H22c-2.206 0-4 1.794-4 4s1.794 4 4 4h30v-2H22c-1.103 0-2-0.897-2-2s0.897-2 2-2h30c2.206 0 4-1.794 4-4S54.206 47.007 52 47.007z" fill="#b5838d" data-fill-palette-color="accent"></path><rect x="54" y="59.007" width="2" height="2" fill="#b5838d" data-fill-palette-color="accent"></rect><path d="M21 25.641L5.083 35.305C3.799 36.086 3 37.504 3 39.007c0 0.552 0.448 1 1 1s1-0.448 1-1v-1.59l16-8.857V25.641z" fill="#b5838d" data-fill-palette-color="accent"></path><path d="M21 13.038l-4.829-2.788c-0.661 0.76-1.269 1.565-1.817 2.414L21 16.502V13.038z" fill="#b5838d" data-fill-palette-color="accent"></path><path d="M21 30.847l-7.042 3.899c0.646 1.083 1.38 2.096 2.194 3.031L21 34.977V30.847z" fill="#b5838d" data-fill-palette-color="accent"></path><path d="M21 7.264l-0.916-0.529c-0.882 0.611-1.708 1.294-2.486 2.029L21 10.728V7.264z" fill="#b5838d" data-fill-palette-color="accent"></path><path d="M20 18.234l-6.649-3.839c-0.461 0.891-0.855 1.82-1.186 2.779L17 19.966 20 18.234z" fill="#b5838d" data-fill-palette-color="accent"></path><path d="M43.913 6.737L43 7.264v2.68l2.825-1.715C45.213 7.693 44.575 7.195 43.913 6.737z" fill="#b5838d" data-fill-palette-color="accent"></path><path d="M21 40.75v-3.464l-3.414 1.971c0.783 0.738 1.617 1.414 2.499 2.021L21 40.75z" fill="#b5838d" data-fill-palette-color="accent"></path><path d="M15 21.121l-3.41-1.969c-0.246 1.031-0.418 2.089-0.504 3.172L12 22.853 15 21.121z" fill="#b5838d" data-fill-palette-color="accent"></path><path d="M21 23.302v-3.336l-9.929 5.733c0.089 1.118 0.272 2.221 0.536 3.306L21 23.302z" fill="#b5838d" data-fill-palette-color="accent"></path><path d="M52.42 19.146l-1.531 0.884-1-1.732 1.965-1.134c-0.324-0.942-0.72-1.857-1.176-2.745L43 18.668v3.607l5.312-3.067 1 1.732L43 24.585v3.464l9.924-5.73C52.838 21.247 52.667 20.187 52.42 19.146z" fill="#b5838d" data-fill-palette-color="accent"></path><path d="M44 29.781l6.649 3.839c0.461-0.891 0.855-1.82 1.186-2.779L47 28.049 44 29.781z" fill="#b5838d" data-fill-palette-color="accent"></path><path d="M52.915 25.691L52 25.162l-3 1.732 3.41 1.969C52.656 27.831 52.828 26.774 52.915 25.691z" fill="#b5838d" data-fill-palette-color="accent"></path><path d="M58.875 3.007c-0.39 0-0.771 0.106-1.103 0.309L43 12.283v4.099l16.904-9.357C60.58 6.651 61 5.938 61 5.166 61 3.96 60.047 3.007 58.875 3.007z" fill="#b5838d" data-fill-palette-color="accent"></path><path d="M49.646 35.35L43 31.513v3.464l4.829 2.788C48.49 37.004 49.098 36.2 49.646 35.35z" fill="#b5838d" data-fill-palette-color="accent"></path><path d="M41 5.049c-0.971-0.461-1.969-0.86-3-1.167v40.241c1.038-0.31 2.035-0.711 3-1.171V5.049z" fill="#b5838d" data-fill-palette-color="accent"></path><path d="M46.401 39.25L43 37.286v3.464l0.916 0.529C44.798 40.668 45.624 39.985 46.401 39.25z" fill="#b5838d" data-fill-palette-color="accent"></path></g></svg></g></svg></g></svg></g></svg></g></svg></g></svg></g><defs></defs></svg><rect width="395.52" height="72.55102879001409" fill="none" stroke="none" visibility="hidden"></rect></g></svg></g></svg>